<?xml version="1.0" encoding="utf-8"?>
<!-- Generator: Adobe Illustrator 26.5.2, SVG Export Plug-In . SVG Version: 6.00 Build 0)  -->
<svg version="1.1" id="Layer_1" xmlns="http://www.w3.org/2000/svg" xmlns:xlink="http://www.w3.org/1999/xlink" x="0px" y="0px"
	 viewBox="0 0 200 200" style="enable-background:new 0 0 200 200;" xml:space="preserve">
<style type="text/css">
	.st0{fill:#F20B4B;}
	.st1{fill:#023279;}
	.st2{fill:#19ADE5;}
</style>
<g>
	<path class="st0" d="M133.5,76.8c0-0.4,0-0.8,0-1.2c0-14.4-11.7-26.1-26.1-26.1c-10.6,0-19.6,6.3-23.7,15.3c-2.2-1.7-4.9-2.8-8-2.8
		c-7.1,0-12.8,5.7-12.8,12.8c0,0.9,0.1,1.7,0.2,2.5c-7.5,2.1-13.1,9-13.1,17.2l0,0c0,9.9,8,17.8,17.8,17.8h64
		c9.9,0,17.8-8,17.8-17.8l0,0C149.8,85.2,142.7,77.6,133.5,76.8z"/>
	<g>
		<g>
			
				<rect x="112.6" y="84.2" transform="matrix(0.8638 -0.5039 0.5039 0.8638 -41.1887 73.0908)" class="st1" width="4" height="57.1"/>
		</g>
		<g>
			
				<rect x="57.3" y="110.7" transform="matrix(0.5039 -0.8638 0.8638 0.5039 -54.7866 130.0579)" class="st1" width="57.1" height="4"/>
		</g>
	</g>
</g>
<g>
	<circle class="st2" cx="129" cy="137.4" r="15.2"/>
</g>
<g>
	<circle class="st2" cx="100.2" cy="88.1" r="15.2"/>
</g>
<g>
	<circle class="st2" cx="71.5" cy="137.4" r="15.2"/>
</g>
</svg>
