<?xml version="1.0" encoding="utf-8"?>
<!-- Generator: Adobe Illustrator 26.5.2, SVG Export Plug-In . SVG Version: 6.00 Build 0)  -->
<svg version="1.1" id="Layer_1" xmlns="http://www.w3.org/2000/svg" xmlns:xlink="http://www.w3.org/1999/xlink" x="0px" y="0px"
	 viewBox="0 0 200 200" style="enable-background:new 0 0 200 200;" xml:space="preserve">
<style type="text/css">
	.st0{fill:#F20B4B;}
	.st1{fill:#023279;}
	.st2{fill:#19ADE5;}
</style>
<g>
	<g>
		<path class="st0" d="M86.5,95H36.5c-4.6,0-8.3-3.7-8.3-8.3V83c0-4.6,3.7-8.3,8.3-8.3h49.9c4.6,0,8.3,3.7,8.3,8.3v3.7
			C94.8,91.3,91.1,95,86.5,95z"/>
		<g>
			<circle class="st1" cx="86.2" cy="84.9" r="3.4"/>
			<g>
				<rect x="35.8" y="80.4" class="st1" width="2.8" height="9"/>
				<rect x="40.5" y="80.4" class="st1" width="2.8" height="9"/>
				<rect x="45.2" y="80.4" class="st1" width="2.8" height="9"/>
				<rect x="50" y="80.4" class="st1" width="2.8" height="9"/>
				<rect x="54.7" y="80.4" class="st1" width="2.8" height="9"/>
			</g>
		</g>
	</g>
	<g>
		<path class="st0" d="M86.5,125H36.5c-4.6,0-8.3-3.7-8.3-8.3V113c0-4.6,3.7-8.3,8.3-8.3h49.9c4.6,0,8.3,3.7,8.3,8.3v3.7
			C94.8,121.2,91.1,125,86.5,125z"/>
		<g>
			<circle class="st1" cx="86.2" cy="114.8" r="3.4"/>
			<g>
				<rect x="35.8" y="110.3" class="st1" width="2.8" height="9"/>
				<rect x="40.5" y="110.3" class="st1" width="2.8" height="9"/>
				<rect x="45.2" y="110.3" class="st1" width="2.8" height="9"/>
				<rect x="50" y="110.3" class="st1" width="2.8" height="9"/>
				<rect x="54.7" y="110.3" class="st1" width="2.8" height="9"/>
			</g>
		</g>
	</g>
	<g>
		<g>
			<circle class="st2" cx="127.1" cy="71.7" r="11.8"/>
		</g>
		<polygon class="st1" points="99.7,101.7 28.3,101.7 28.3,98 98.1,98 125.7,70.4 128.4,73 		"/>
	</g>
	<g>
		
			<rect x="121.2" y="55.8" transform="matrix(0.7072 -0.707 0.707 0.7072 0.5718 116.6567)" class="st1" width="39.8" height="3.8"/>
		<rect x="127.1" y="69.8" class="st1" width="39.8" height="3.8"/>
		
			<rect x="139.2" y="65.9" transform="matrix(0.7071 -0.7071 0.7071 0.7071 -19.3131 124.9075)" class="st1" width="3.8" height="39.8"/>
		<g>
			<circle class="st0" cx="127.1" cy="71.7" r="4.9"/>
		</g>
		<g>
			<circle class="st0" cx="155.2" cy="43.6" r="4.9"/>
		</g>
		<g>
			<circle class="st0" cx="166.8" cy="71.7" r="4.9"/>
		</g>
		<g>
			<circle class="st0" cx="155.2" cy="99.8" r="4.9"/>
		</g>
	</g>
	<g>
		<circle class="st2" cx="127.1" cy="128" r="11.8"/>
	</g>
	
		<rect x="111.1" y="94" transform="matrix(0.7071 -0.7071 0.7071 0.7071 -47.442 113.2574)" class="st1" width="3.8" height="39.8"/>
	<g>
		
			<rect x="139.2" y="122.1" transform="matrix(0.7071 -0.7071 0.7071 0.7071 -59.0933 141.3842)" class="st1" width="3.8" height="39.8"/>
		<rect x="127.1" y="126.1" class="st1" width="39.8" height="3.8"/>
		
			<rect x="121.2" y="112" transform="matrix(0.7072 -0.707 0.707 0.7072 -39.2048 133.1307)" class="st1" width="39.8" height="3.8"/>
		<g>
			<circle class="st0" cx="127.1" cy="128" r="4.9"/>
		</g>
		<g>
			<circle class="st0" cx="155.2" cy="156.1" r="4.9"/>
		</g>
		<g>
			<circle class="st0" cx="166.8" cy="128" r="4.9"/>
		</g>
		<g>
			<circle class="st0" cx="155.2" cy="99.8" r="4.9"/>
		</g>
	</g>
</g>
</svg>
